<svg id="Layer_1" data-name="Layer 1" xmlns="http://www.w3.org/2000/svg" viewBox="0 0 56.5 24.36" width="64" height="64">
<defs></defs>
<title>ak</title>
<path class="ak-1" d="M24.15,38H9.31v6.18H3.75V27.05A6.88,6.88,0,0,1,5.8,22a6.82,6.82,0,0,1,5-2.16H29.71V44.18H24.15Zm0-5.57V25.37H10.8a1.45,1.45,0,0,0-1.05.36,1.34,1.34,0,0,0-.44,1v5.74Z" transform="translate(-3.75 -19.82)"/>
<path class="ak-1" d="M60.25,19.82,49.12,32.22l10.73,12H52.37l-7-7.79-7,7.79H33.05V19.82h5.57V35.59L52.77,19.82Z" transform="translate(-3.75 -19.82)"/>
</svg>