<svg xmlns="http://www.w3.org/2000/svg" viewBox="0 0 314.43 315.09" width="64" height="64">
    <defs>
        <style>
            .hal-cls-1 {
                fill: #333;
            }

            .hal-cls-2 {
                fill: #666;
            }

            .hal-cls-3 {
                fill: #d5201a;
            }

            .hal-cls-4 {
                fill: #ffd00d;
            }

            .hal-cls-5 {
                fill: #fff;
            }
        </style>
    </defs>
    <g id="Layer_2" data-name="Layer 2">
        <g id="Layer_1-2" data-name="Layer 1">
            <circle class="hal-cls-1" cx="156.87" cy="157.59" r="146" />
            <path class="hal-cls-2"
                d="M157.22,315.09C70.41,315.1-.15,244.32,0,157.37S70.49,0,157.2,0,314.58,70.77,314.43,157.71,243.89,315.09,157.22,315.09ZM294.76,160.68c2.32-75.25-57.86-138.53-134-141C85.34,17.31,22.11,77.52,19.68,154c-2.41,75.67,57.78,139,134.4,141.35C229.3,297.72,292.4,237.3,294.76,160.68Z" />
            <path class="hal-cls-3"
                d="M157.05,275.67A118,118,0,0,1,39.34,157.48C39.45,92.06,92.67,38.9,157.56,39.42,223,39.94,275.47,92.83,275.09,157.8,274.71,223.24,222,275.92,157.05,275.67ZM137.64,157.45a19.58,19.58,0,1,0,19.87-19.52A19.42,19.42,0,0,0,137.64,157.45Z" />
            <path class="hal-cls-3"
                d="M157.09,249.36A91.7,91.7,0,0,1,65.6,157.49c.08-50.85,41.45-92.16,91.88-91.76,50.83.41,91.65,41.52,91.35,92C248.54,208.6,207.53,249.55,157.09,249.36Z" />
            <path class="hal-cls-4" d="M137.64,157.45a19.58,19.58,0,1,1,19.29,19.72A19.44,19.44,0,0,1,137.64,157.45Z" />
            <path class="hal-cls-5"
                d="M143.93,59.93c1,8.24,1.95,16.13,2.83,23.42L118.45,93.48c-3.29-6.53-6.86-13.62-10.59-21C118.92,65.82,130.73,62,143.93,59.93Z" />
            <path class="hal-cls-5"
                d="M170.43,60a96.92,96.92,0,0,1,36.13,12.46L196,93.54,167.72,83.31C168.53,76.33,169.46,68.36,170.43,60Z" />
            <path class="hal-cls-5" d="M221.07,119.83l-11.61-15c4.79-6.06,9.78-12.36,15.36-19.39l15.7,18.86Z" />
            <path class="hal-cls-5" d="M73.92,104.35,89.56,85.41,105,104.83l-11.63,15Z" />
        </g>
    </g>
</svg>