<?xml version="1.0" encoding="utf-8"?>
<!-- Generator: Adobe Illustrator 24.2.0, SVG Export Plug-In . SVG Version: 6.00 Build 0)  -->
<svg version="1.1" id="Layer_1" xmlns="http://www.w3.org/2000/svg" xmlns:xlink="http://www.w3.org/1999/xlink" x="0px" y="0px"
	 viewBox="0 0 20.2 20.2" style="enable-background:new 0 0 20.2 20.2;" xml:space="preserve">
<style type="text/css">
	.st0{fill:#BB4040;}
</style>
<g>
	<rect x="6.8" y="4.7" width="1.5" height="6.8"/>
	<path d="M11.8,4.7c-0.9,0-1.6,0.1-2.1,0.1v6.7h1.5V9.1c0.1,0,0.3,0,0.5,0c0.9,0,1.7-0.2,2.2-0.7c0.4-0.4,0.6-1,0.6-1.6
		c0-0.7-0.3-1.2-0.7-1.6C13.4,4.9,12.7,4.7,11.8,4.7z M11.7,8c-0.2,0-0.4,0-0.5,0v-2c0.1,0,0.3-0.1,0.6-0.1c0.8,0,1.2,0.4,1.2,1
		C13,7.5,12.5,8,11.7,8z"/>
	<path class="st0" d="M10.1,0C5.5,0,1.8,3.7,1.8,8.3c0,4.6,8.3,11.9,8.3,11.9s8.3-7.3,8.3-11.9S14.7,0,10.1,0z M10.1,13.4
		c-3,0-5.5-2.5-5.5-5.5c0-3,2.5-5.5,5.5-5.5c3.1,0,5.5,2.5,5.5,5.5C15.7,10.9,13.2,13.4,10.1,13.4z"/>
</g>
</svg>
