<svg xmlns="http://www.w3.org/2000/svg" viewBox="0 0 329.97 288.01" width="64" height="64"><defs><style>.cls-1{fill:#663d98;}.cls-2{fill:#379d47;}</style></defs><g id="Layer_2" data-name="Layer 2"><g id="logo"><path class="cls-1" d="M224.25,122.29c0,59.51-33.45,78.38-59.27,78.38s-59.26-18.87-59.26-78.38S165,0,165,0,224.25,62.78,224.25,122.29ZM118.11,190.75A76.16,76.16,0,0,1,101.56,163c-4.11-11.77-6.19-25.45-6.19-40.67,0-14.83,3.35-30.94,9.95-47.87A223.57,223.57,0,0,1,121,42.52C99.49,22.89,65.44,13.79,65.44,13.79s19.63,28.64,10.9,78.53S66,160,83.61,185.07c13.88,19.7,36.89,22.31,55.49,20.4A64.41,64.41,0,0,1,118.11,190.75Zm72.76,14.72c18.59,1.91,41.6-.7,55.48-20.4,17.64-25,16-42.85,7.27-92.75s10.91-78.53,10.91-78.53S230.47,22.89,209,42.52a222.62,222.62,0,0,1,15.68,31.9c6.6,16.93,9.95,33,9.95,47.87,0,15.22-2.09,28.9-6.2,40.67a76.14,76.14,0,0,1-16.54,27.79A64.51,64.51,0,0,1,190.87,205.47ZM262.55,69.4s-1.09,17.35,5.42,52.22c7.17,38.43-6.36,60.06-16.53,70.49,0,0,30.57-6.88,31.93-51.49s-.45-54.72,17.22-85.92C281,57.11,262.55,69.4,262.55,69.4Zm32.92,20.78s-4.28,11.27-4.47,45.23c-.15,26.66-5.22,36.06-15,48.79,10.16-3.38,28.55-12.38,31.64-45.69S330,84.81,330,84.81,319.68,81.92,295.47,90.18ZM29.38,54.7C47.05,85.9,45.24,96,46.6,140.62s31.93,51.49,31.93,51.49C68.36,181.68,54.83,160.05,62,121.62c6.51-34.87,5.42-52.22,5.42-52.22S49,57.11,29.38,54.7ZM0,84.81s19.23,20.38,22.32,53.7S43.79,180.82,54,184.2c-9.77-12.73-14.84-22.13-15-48.79-.19-34-4.48-45.23-4.48-45.23C10.28,81.92,0,84.81,0,84.81Z"/><path class="cls-2" d="M165,213.53s-22.2-.34-22.2,30.61C142.78,266.53,165,288,165,288s22.21-21.48,22.21-43.87C187.19,213.19,165,213.53,165,213.53Zm90.72,11.84.66.06c7.48.54,15.08-5,15.08-5s-6.73-6.58-14.2-7.11c-5-.37-7.68.89-9.09,2.27A64.77,64.77,0,0,1,255.7,225.37Zm-58.79,18.77a48.19,48.19,0,0,1-1.37,11.14c14.78,10.94,34.51,13.77,34.51,13.77s-.6-27.35-15.06-43.64c-13.46-15.16-23.77-14.69-29.07-12.76C192.13,218.88,196.91,228.83,196.91,244.14Zm25.64-25.42a64,64,0,0,1,11.89,20.79,61.34,61.34,0,0,0,16.79-1.17s-7-16.61-19.82-23.09c-7.11-3.6-12.18-4.06-15.7-3.32A71.56,71.56,0,0,1,222.55,218.72ZM81.81,215.58c-1.4-1.38-4.06-2.64-9.08-2.27-7.48.53-14.21,7.11-14.21,7.11s7.61,5.55,15.08,5c.23,0,.45,0,.66-.06A65.43,65.43,0,0,1,81.81,215.58Zm62.24-2.93c-5.3-1.93-15.61-2.4-29.07,12.76-14.46,16.29-15.07,43.64-15.07,43.64s19.74-2.83,34.52-13.77a48.19,48.19,0,0,1-1.37-11.14C133.06,228.83,137.84,218.88,144.05,212.65Zm-29.79-.72c-3.53-.74-8.6-.28-15.71,3.32-12.81,6.48-19.82,23.09-19.82,23.09a61.44,61.44,0,0,0,16.8,1.17,64,64,0,0,1,11.88-20.79A71.62,71.62,0,0,1,114.26,211.93Z"/></g></g></svg>