<svg xmlns="http://www.w3.org/2000/svg" viewBox="0 0 242.92 212.03"><defs><style>.cls-1{fill:#fff;}</style></defs><g id="Layer_2" data-name="Layer 2"><g id="Layer_1-2" data-name="Layer 1"><path class="cls-1" d="M165.09,90c0,43.81-24.62,57.7-43.62,57.7S77.83,133.84,77.83,90,121.47,0,121.47,0,165.09,46.21,165.09,90ZM87,140.43A56.21,56.21,0,0,1,74.78,120a91.7,91.7,0,0,1-4.57-29.94c0-10.92,2.47-22.78,7.33-35.25A163.07,163.07,0,0,1,89.08,31.3c-15.83-14.46-40.9-21.15-40.9-21.15s14.45,21.08,8,57.8-7.64,49.85,5.35,68.28c10.22,14.51,27.16,16.43,40.85,15A47.21,47.21,0,0,1,87,140.43Zm53.57,10.84c13.69,1.4,30.63-.52,40.85-15,13-18.4,11.78-31.54,5.35-68.27s8-57.82,8-57.82-25.07,6.69-40.9,21.15a165.36,165.36,0,0,1,11.54,23.48c4.86,12.47,7.32,24.33,7.32,35.25,0,11.2-1.53,21.28-4.55,29.94A56.12,56.12,0,0,1,156,140.43a47.58,47.58,0,0,1-15.48,10.84ZM193.29,51.09s-.8,12.78,4,38.45c5.28,28.29-4.68,44.21-12.17,51.89,0,0,22.51-5.06,23.51-37.91s-.33-40.28,12.68-63.25C206.84,42,193.29,51.09,193.29,51.09Zm24.24,15.3s-3.15,8.3-3.29,33.3c-.11,19.63-3.85,26.55-11.05,35.92,7.49-2.5,21-9.12,23.3-33.64s16.43-39.53,16.43-39.53-7.54-2.13-25.39,4ZM21.63,40.27c13,23,11.68,30.41,12.68,63.25s23.5,37.91,23.5,37.91c-7.48-7.68-17.44-23.6-12.17-51.89,4.8-25.67,4-38.45,4-38.45S36.09,42,21.63,40.27ZM0,62.44s14.16,15,16.43,39.53,15.82,31.14,23.3,33.64c-7.2-9.37-10.93-16.29-11-35.92-.14-25-3.29-33.3-3.29-33.3C7.58,60.31,0,62.44,0,62.44Z"/><path class="cls-1" d="M121.47,157.2s-16.35-.26-16.35,22.54c0,16.48,16.35,32.29,16.35,32.29s16.34-15.81,16.34-32.29c0-22.8-16.34-22.54-16.34-22.54Zm66.79,8.72h.49c5.5.4,11.1-3.68,11.1-3.68s-5-4.85-10.47-5.25c-3.68-.26-5.65.66-6.68,1.67a48.33,48.33,0,0,1,5.56,7.26ZM145,179.74a34.94,34.94,0,0,1-1,8.21c10.88,8.06,25.41,10.14,25.41,10.14S168.92,178,158.28,166c-9.91-11.14-17.5-10.83-21.4-9.41,4.57,4.59,8.09,11.92,8.09,23.19ZM163.86,161a47.05,47.05,0,0,1,8.74,15.31,45.4,45.4,0,0,0,12.36-.89s-5.16-12.23-14.59-17c-5.23-2.65-9-3-11.56-2.45a51.3,51.3,0,0,1,5,5ZM60.24,158.7c-1-1-3-1.93-6.7-1.67-5.5.4-10.45,5.24-10.45,5.24s5.6,4.09,11.1,3.69l.49-.05A47.42,47.42,0,0,1,60.24,158.7Zm45.81-2.15c-3.9-1.42-11.49-1.76-21.4,9.4C74,178,73.56,198.08,73.56,198.08S88.09,196,99,187.94a35.45,35.45,0,0,1-1-8.2C98,168.47,101.48,161.14,106.05,156.55ZM84.12,156c-2.59-.54-6.33-.2-11.56,2.45-9.45,4.77-14.61,17-14.61,17a45.46,45.46,0,0,0,12.37.86A47.26,47.26,0,0,1,79.07,161,53,53,0,0,1,84.12,156Z"/></g></g></svg>