<svg id="Layer_1" data-name="Layer 1" xmlns="http://www.w3.org/2000/svg" viewBox="0 0 64 64"><path d="M14.09,9.14V29.6H9.39V9.14H2V5.32H21.58V9.14Z"/><path d="M39.31,5.32V9.1H34.58V25.83h4.73V29.6h-14V25.83h4.62V9.1H25.27V5.32Z"/><path d="M49.72,29.6H45V5.32h8.3a10.65,10.65,0,0,1,3.59.57,8.17,8.17,0,0,1,2.73,1.6A7.13,7.13,0,0,1,61.39,10,8,8,0,0,1,62,13.14a7.34,7.34,0,0,1-.61,3,7,7,0,0,1-1.73,2.39,8.13,8.13,0,0,1-2.73,1.58,10.65,10.65,0,0,1-3.59.57H49.72Zm3.62-12.71a4.59,4.59,0,0,0,1.74-.3,3.56,3.56,0,0,0,1.23-.81,3.52,3.52,0,0,0,.73-1.2,4.18,4.18,0,0,0,.24-1.41A5.08,5.08,0,0,0,57,11.59a3.73,3.73,0,0,0-.73-1.29,3.54,3.54,0,0,0-1.23-.86,4.39,4.39,0,0,0-1.74-.32H49.72v7.77Z"/><path d="M7.15,58.68h-2V34.4h7.64a9.37,9.37,0,0,1,3,.53,7.29,7.29,0,0,1,2.44,1.42,6.54,6.54,0,0,1,1.63,2.23,7,7,0,0,1,.61,3,6.89,6.89,0,0,1-.61,3,6.29,6.29,0,0,1-1.65,2.21,7.18,7.18,0,0,1-2.42,1.4,9.09,9.09,0,0,1-3,.5H7.15ZM12.81,47A6.72,6.72,0,0,0,15,46.58a5.41,5.41,0,0,0,1.8-1.07A5,5,0,0,0,18,43.85a5.44,5.44,0,0,0,.44-2.23,5.62,5.62,0,0,0-.43-2.26,5.09,5.09,0,0,0-3-2.84,6.55,6.55,0,0,0-2.24-.41H7.15V47Z"/><path d="M27.39,47v9.89H39.73v1.75H25.4V34.4H39.66v1.76H27.39v9.13H38.1V47Z"/><path d="M47.92,48.52V58.68H46V34.4h6.86a10,10,0,0,1,3,.51,7.81,7.81,0,0,1,2.48,1.39A6.54,6.54,0,0,1,60,38.52a7.05,7.05,0,0,1,.61,3,6.56,6.56,0,0,1-.36,2.23,6.68,6.68,0,0,1-1,1.82A7.12,7.12,0,0,1,57.71,47a10.21,10.21,0,0,1-1.93,1.05l5.55,10.41v.21H59.25L53.93,48.52Zm5.31-1.7a6.15,6.15,0,0,0,2.11-.42,5.43,5.43,0,0,0,1.71-1.09,5.17,5.17,0,0,0,1.12-1.66,5.43,5.43,0,0,0,.41-2.13,5.64,5.64,0,0,0-.44-2.27,5,5,0,0,0-1.23-1.7,5.21,5.21,0,0,0-1.82-1,7.08,7.08,0,0,0-2.28-.39H47.92V46.82Z"/></svg>